<svg width="183" height="182" viewBox="0 0 183 182" fill="none" xmlns="http://www.w3.org/2000/svg">
<path fill-rule="evenodd" clip-rule="evenodd" d="M92.668 179.945C96.0349 179.577 99.3756 177.349 102.56 173.308C106.05 168.879 109.237 162.409 111.932 154.323C117.319 138.164 120.668 115.775 120.668 91C120.668 66.2248 117.319 43.8365 111.932 27.6766C109.237 19.5915 106.05 13.1206 102.56 8.69162C99.3756 4.6511 96.0349 2.42312 92.668 2.0547V179.945ZM90.668 179.945V2.0547C87.301 2.42312 83.9603 4.6511 80.776 8.69162C77.2856 13.1206 74.0985 19.5915 71.4035 27.6766C66.0168 43.8365 62.668 66.2248 62.668 91C62.668 115.775 66.0168 138.164 71.4035 154.323C74.0985 162.409 77.2856 168.879 80.776 173.308C83.9603 177.349 87.301 179.577 90.668 179.945ZM91.668 0C41.4101 0 0.667969 40.7421 0.667969 91C0.667969 141.258 41.4101 182 91.668 182C141.926 182 182.668 141.258 182.668 91C182.668 40.7421 141.926 0 91.668 0ZM50.0736 27.9151C59.0689 14.4221 70.8617 5.35028 83.9342 2.7604C82.278 3.97444 80.6984 5.55898 79.2052 7.45367C75.5173 12.1332 72.24 18.8425 69.5061 27.0442C64.0348 43.4579 60.668 66.0696 60.668 91C60.668 115.93 64.0348 138.542 69.5061 154.956C72.24 163.157 75.5173 169.867 79.2052 174.546C80.6984 176.441 82.278 178.026 83.9342 179.24C70.8617 176.65 59.0689 167.578 50.0736 154.085C39.3396 137.984 32.668 115.683 32.668 91C32.668 66.3171 39.3396 44.0161 50.0736 27.9151ZM133.262 154.085C124.267 167.578 112.474 176.65 99.4017 179.24C101.058 178.026 102.638 176.441 104.131 174.546C107.819 169.867 111.096 163.157 113.83 154.956C119.301 138.542 122.668 115.93 122.668 91C122.668 66.0696 119.301 43.4579 113.83 27.0442C111.096 18.8425 107.819 12.1332 104.131 7.45367C102.638 5.55898 101.058 3.97444 99.4017 2.7604C112.474 5.35028 124.267 14.4221 133.262 27.9151C143.996 44.0161 150.668 66.3171 150.668 91C150.668 115.683 143.996 137.984 133.262 154.085ZM74.4577 178.337C64.4362 173.958 55.521 165.862 48.4095 155.194C37.4278 138.722 30.668 116.023 30.668 91C30.668 65.9773 37.4278 43.2783 48.4095 26.8057C55.521 16.1384 64.4362 8.04208 74.4577 3.6627C33.5404 11.6795 2.66797 47.7344 2.66797 91C2.66797 134.266 33.5404 170.32 74.4577 178.337ZM108.878 178.337C149.796 170.32 180.668 134.266 180.668 91C180.668 47.7344 149.796 11.6795 108.878 3.6627C118.9 8.04208 127.815 16.1384 134.926 26.8057C145.908 43.2783 152.668 65.9773 152.668 91C152.668 116.023 145.908 138.722 134.926 155.194C127.815 165.862 118.9 173.958 108.878 178.337Z" fill="#CEFF7E"/>
</svg>