<svg width="24" height="25" viewBox="0 0 24 25" fill="none" xmlns="http://www.w3.org/2000/svg">
<path d="M22 9.45435H2M2 8.25435V16.6543C2 18.3345 2 19.1745 2.32698 19.8163C2.6146 20.3808 3.07354 20.8397 3.63803 21.1273C4.27976 21.4543 5.11984 21.4543 6.8 21.4543H17.2C18.8802 21.4543 19.7202 21.4543 20.362 21.1273C20.9265 20.8397 21.3854 20.3808 21.673 19.8163C22 19.1745 22 18.3345 22 16.6543V8.25435C22 6.57419 22 5.73412 21.673 5.09238C21.3854 4.52789 20.9265 4.06895 20.362 3.78133C19.7202 3.45435 18.8802 3.45435 17.2 3.45435H6.8C5.11984 3.45435 4.27976 3.45435 3.63803 3.78133C3.07354 4.06895 2.6146 4.52789 2.32698 5.09238C2 5.73411 2 6.57419 2 8.25435Z" stroke="#CEFF7E" stroke-width="2" stroke-linecap="round" stroke-linejoin="round"/>
</svg>