<svg width="22" height="21" viewBox="0 0 22 21" fill="none"
    xmlns="http://www.w3.org/2000/svg">
    <path d="M10.9906 0.241822C5.19453 0.239472 0.5 4.93166 0.5 10.723C0.5 15.3027 3.43672 19.1957 7.52656 20.6254C8.07734 20.7637 7.99297 20.3722 7.99297 20.1051V18.2887C4.8125 18.6613 4.68359 16.5566 4.47031 16.2051C4.03906 15.4691 3.01953 15.2816 3.32422 14.9301C4.04844 14.5574 4.78672 15.0238 5.64219 16.2871C6.26094 17.2035 7.46797 17.0488 8.07969 16.8965C8.21328 16.3457 8.49922 15.8535 8.89297 15.4715C5.59766 14.8808 4.22422 12.8699 4.22422 10.4793C4.22422 9.31914 4.60625 8.25275 5.35625 7.3926C4.87812 5.97463 5.40078 4.76057 5.47109 4.5801C6.83281 4.45822 8.24844 5.5551 8.35859 5.64182C9.132 5.43322 10.0156 5.32307 11.0047 5.32307C11.9984 5.32307 12.8844 5.43791 13.6648 5.64885C13.9297 5.44729 15.2422 4.5051 16.5078 4.61994C16.5758 4.80041 17.0867 5.98635 16.6367 7.38557C17.3961 8.24807 17.7828 9.32384 17.7828 10.4863C17.7828 12.8816 16.4 14.8949 13.0953 15.4762C13.3784 15.7545 13.6031 16.0865 13.7564 16.4527C13.9098 16.8189 13.9886 17.212 13.9883 17.609V20.2457C14.007 20.4566 13.9883 20.6652 14.3398 20.6652C18.4906 19.266 21.4789 15.3449 21.4789 10.7254C21.4789 4.93166 16.782 0.241822 10.9906 0.241822Z" fill="#CEFF7E"/>
</svg>