<svg width="21" height="20" viewBox="0 0 21 20" fill="none" xmlns="http://www.w3.org/2000/svg">
<path fill-rule="evenodd" clip-rule="evenodd" d="M10.5248 0.454102C5.01578 0.454102 0.550781 4.9191 0.550781 10.4281C0.550781 14.8341 3.40778 18.5731 7.37178 19.8931C7.87078 19.9831 8.05078 19.6761 8.05078 19.4121C8.05078 19.1751 8.04278 18.5471 8.03978 17.7161C5.26478 18.3181 4.67878 16.3781 4.67878 16.3781C4.22678 15.2261 3.57178 14.9191 3.57178 14.9191C2.66678 14.3001 3.64078 14.3141 3.64078 14.3141C4.64278 14.3841 5.16778 15.3421 5.16778 15.3421C6.05778 16.8661 7.50378 16.4261 8.06978 16.1711C8.16078 15.5261 8.42078 15.0861 8.70478 14.8371C6.49078 14.5861 4.16278 13.7301 4.16278 9.9071C4.16278 8.8201 4.55178 7.9281 5.18678 7.2321C5.08578 6.9791 4.74078 5.9641 5.28578 4.5921C5.28578 4.5921 6.12278 4.3231 8.02778 5.6131C8.82578 5.3921 9.67678 5.2811 10.5238 5.2771C11.3728 5.2811 12.2248 5.3921 13.0198 5.6131C14.9258 4.3221 15.7618 4.5921 15.7618 4.5921C16.3068 5.9641 15.9648 6.9791 15.8608 7.2321C16.5008 7.9281 16.8848 8.8191 16.8848 9.9071C16.8848 13.7401 14.5548 14.5821 12.3328 14.8291C12.6878 15.1371 13.0078 15.7451 13.0078 16.6751C13.0078 18.0091 12.9958 19.0851 12.9958 19.4121C12.9958 19.6791 13.1738 19.9891 13.6828 19.8911C17.6448 18.5691 20.4988 14.8331 20.4988 10.4281C20.4988 4.9191 16.0338 0.454102 10.5248 0.454102Z" fill="#9CA3AF"/>
</svg>