<svg width="181" height="184" viewBox="0 0 181 184" fill="none" xmlns="http://www.w3.org/2000/svg">
<path fill-rule="evenodd" clip-rule="evenodd" d="M90.8345 1.13382L90.3345 0.845337L90.334 0.845575L90.3336 0.845337L89.8336 1.13382L51.3341 23.3452L50.8336 23.6338L50.3333 23.9224V23.924L11.9347 46.1341L11.9342 46.1344L11.934 46.1345L11.4349 46.4228V46.4232V47V91.3639L11.332 91.4232L11.3333 92.0022L11.4334 137.002L11.4347 137.578L11.9332 137.866L13.0468 138.509L50.3333 160.076V160.078L50.8336 160.366L51.3341 160.655L89.8331 182.866L89.8336 182.866L89.8496 182.875L90.333 183.155L90.3333 183.154L90.3336 183.155L90.817 182.875L90.833 182.866L90.8335 182.866L129.333 160.655L129.334 160.655L129.833 160.366L129.834 160.366L129.838 160.364L130.333 160.078V160.077L168.733 137.866L168.734 137.866L168.751 137.856L169.233 137.577V137.577V137V92.5768V92V91.4232V47V46.4232V46.4228L168.734 46.1344L168.733 46.1341L168.727 46.1303L130.335 23.924V23.9224L129.835 23.6338L129.334 23.3452L90.8345 1.13382ZM53.3592 159.487L90.3333 180.845L127.308 159.486L90.334 138.155L53.3592 159.487ZM91.3348 90.2677V47.5767L128.335 26.2306V68.9216L91.3348 90.2677ZM91.3348 136.423V93.7323L128.333 115.078V157.769L91.3348 136.423ZM90.334 45.8451L53.36 24.5139L90.334 3.15529L127.308 24.5139L90.334 45.8451ZM52.3333 26.2306L89.3333 47.5767V90.2686L52.3333 68.9224V26.2306ZM13.4349 47.5772V90.21L50.3333 68.9224V26.2623L13.4349 47.5772ZM14.072 136.792L13.4349 136.423V93.7337L50.3333 115.076V157.739L14.072 136.792ZM52.3333 157.769V115.078L89.3333 93.7323V136.423L52.3333 157.769ZM167.233 136.423L130.333 157.739V115.077L167.233 93.7337V136.423ZM51.3333 70.6545L88.3322 92L51.3347 113.345L14.3833 91.9718L51.3333 70.6545ZM129.333 113.345L92.3352 92.0004L129.333 70.6553L166.236 92L129.333 113.345ZM167.233 90.2664V47.5772L130.335 26.2623V68.924L167.233 90.2664Z" fill="#CEFF7E"/>
</svg>