<svg width="25" height="25" viewBox="0 0 25 25" fill="none" xmlns="http://www.w3.org/2000/svg">
<path d="M21.4461 8.75906C21.4351 8.00206 21.2951 7.25106 21.0271 6.54306C20.5581 5.33406 19.6031 4.37806 18.3941 3.91006C17.6951 3.64706 16.9561 3.50606 16.2081 3.49006C15.2461 3.44706 14.9411 3.43506 12.4991 3.43506C10.0571 3.43506 9.74409 3.43506 8.78909 3.49006C8.04209 3.50606 7.30309 3.64706 6.60409 3.91006C5.39509 4.37806 4.43909 5.33406 3.97109 6.54306C3.70809 7.24206 3.56609 7.98106 3.55209 8.72806C3.50909 9.69106 3.49609 9.99606 3.49609 12.4381C3.49609 14.8801 3.49609 15.1921 3.55209 16.1481C3.56709 16.8961 3.70809 17.6341 3.97109 18.3351C4.44009 19.5431 5.39509 20.4991 6.60509 20.9671C7.30109 21.2391 8.04009 21.3931 8.79009 21.4171C9.75309 21.4601 10.0581 21.4731 12.5001 21.4731C14.9421 21.4731 15.2551 21.4731 16.2101 21.4171C16.9571 21.4021 17.6961 21.2611 18.3961 20.9981C19.6051 20.5291 20.5601 19.5731 21.0291 18.3651C21.2921 17.6651 21.4331 16.9271 21.4481 16.1781C21.4911 15.2161 21.5041 14.9111 21.5041 12.4681C21.5021 10.0261 21.5021 9.71606 21.4461 8.75906ZM12.4931 17.0561C9.93909 17.0561 7.87009 14.9871 7.87009 12.4331C7.87009 9.87906 9.93909 7.81006 12.4931 7.81006C15.0451 7.81006 17.1161 9.87906 17.1161 12.4331C17.1161 14.9871 15.0451 17.0561 12.4931 17.0561ZM17.3001 8.71706C16.7031 8.71706 16.2221 8.23506 16.2221 7.63906C16.2221 7.04306 16.7031 6.56106 17.3001 6.56106C17.8951 6.56106 18.3771 7.04306 18.3771 7.63906C18.3771 8.23506 17.8951 8.71706 17.3001 8.71706Z" fill="#9CA3AF"/>
<path d="M12.4952 15.4362C14.1537 15.4362 15.4982 14.0917 15.4982 12.4332C15.4982 10.7747 14.1537 9.43018 12.4952 9.43018C10.8367 9.43018 9.49219 10.7747 9.49219 12.4332C9.49219 14.0917 10.8367 15.4362 12.4952 15.4362Z" fill="#9CA3AF"/>
</svg>