<svg width="14" height="14" viewBox="0 0 14 14" fill="none" xmlns="http://www.w3.org/2000/svg">
<path d="M6.5205 1.30224C6.6741 0.990943 6.75096 0.835296 6.85523 0.785563C6.94596 0.742296 7.05143 0.742296 7.14216 0.785563C7.2465 0.835296 7.3233 0.990943 7.47696 1.30224L8.93476 4.25554C8.9801 4.34744 9.00276 4.3934 9.0359 4.42908C9.0653 4.46066 9.1005 4.48626 9.13956 4.50444C9.18376 4.52497 9.23443 4.53238 9.33583 4.5472L12.5967 5.02383C12.9401 5.07402 13.1118 5.09911 13.1912 5.18298C13.2604 5.25595 13.2928 5.35622 13.2797 5.45587C13.2646 5.57041 13.1403 5.69149 12.8917 5.93362L10.533 8.23096C10.4595 8.30256 10.4227 8.33842 10.399 8.38102C10.378 8.41869 10.3645 8.46016 10.3593 8.50302C10.3534 8.55142 10.3621 8.60202 10.3794 8.70316L10.936 11.9481C10.9947 12.2904 11.024 12.4615 10.9689 12.563C10.9209 12.6514 10.8356 12.7134 10.7368 12.7317C10.6231 12.7528 10.4694 12.6719 10.1621 12.5103L7.24696 10.9772C7.1561 10.9295 7.1107 10.9056 7.06283 10.8962C7.0205 10.8879 6.9769 10.8879 6.93456 10.8962C6.8867 10.9056 6.8413 10.9295 6.7505 10.9772L3.83531 12.5103C3.52798 12.6719 3.3743 12.7528 3.26068 12.7317C3.16182 12.7134 3.07651 12.6514 3.02852 12.563C2.97336 12.4615 3.00272 12.2904 3.06141 11.9481L3.61796 8.70316C3.6353 8.60202 3.64398 8.55142 3.63811 8.50302C3.63291 8.46016 3.61944 8.41869 3.59844 8.38102C3.57471 8.33842 3.53795 8.30256 3.46442 8.23096L1.10574 5.93362C0.857136 5.69149 0.732836 5.57041 0.717716 5.45587C0.704556 5.35622 0.737062 5.25595 0.806196 5.18298C0.885656 5.09911 1.05734 5.07402 1.40072 5.02383L4.66157 4.5472C4.76298 4.53238 4.81368 4.52497 4.85784 4.50444C4.89694 4.48626 4.93214 4.46066 4.96149 4.42908C4.99464 4.3934 5.01732 4.34744 5.06268 4.25554L6.5205 1.30224Z" stroke="#9CA3AF" stroke-width="1.33333" stroke-linecap="round" stroke-linejoin="round"/>
</svg>