<svg width="184" height="180" viewBox="0 0 184 180" fill="none" xmlns="http://www.w3.org/2000/svg">
<path fill-rule="evenodd" clip-rule="evenodd" d="M92.0039 7.8392L92.9425 11.6299L182.868 167.4L183.733 168.9H182.001H157.799H156.305H131.882H130.604H105.989H104.903H79.1031H78.0169H53.4038H52.126H27.7046H26.2105H2.0015H0.269531L1.13545 167.4L91.0691 11.6151L92.0039 7.8392ZM80.1892 166.9H103.817L92.003 24.1267L80.1892 166.9ZM105.824 166.9H129.326L94.0266 24.3302L105.824 166.9ZM89.9783 24.342L78.1824 166.9H54.6816L89.9783 24.342ZM29.1988 166.9L87.8007 24.8156L52.6212 166.9H29.1988ZM96.205 24.8067L131.387 166.9H154.811L96.205 24.8067ZM85.3356 25.547L3.73347 166.9H27.0353L85.3356 25.547ZM156.974 166.9L98.6896 25.5855L180.27 166.9H156.974Z" fill="#CEFF7E"/>
</svg>